<?xml version="1.0" encoding="utf-8"?>
<!-- Generator: Adobe Illustrator 22.0.1, SVG Export Plug-In . SVG Version: 6.00 Build 0)  -->
<svg version="1.1" id="图层_2_1_" xmlns="http://www.w3.org/2000/svg" xmlns:xlink="http://www.w3.org/1999/xlink" x="0px"
	 y="0px" viewBox="0 0 60 60" style="enable-background:new 0 0 60 60;" xml:space="preserve">
<path d="M35.3,32.9c0.6-0.6,0.9-1.4,0.9-2.3s-0.3-1.7-0.9-2.3l-0.8-0.8l0.8-2.6h1.5c1.7,0,3.2-1.4,3.2-3.2v-3.4
	c0-1.7-1.4-3.2-3.2-3.2h-1.5l-0.8-2.6l0.8-0.8c0.6-0.6,0.9-1.4,0.9-2.3c0-0.9-0.3-1.7-0.9-2.3l-2.4-2.4c-1.2-1.2-3.4-1.2-4.6,0
	l-0.8,0.8l-2.6-0.8V3.2c0-1.7-1.4-3.2-3.2-3.2h-3.4c-1.7,0-3.2,1.4-3.2,3.2v1.5l-2.6,0.8l-0.8-0.8c-1.3-1.3-3.3-1.3-4.6,0L4.7,7.1
	c-1.3,1.3-1.3,3.3,0,4.6l0.8,0.8l-0.8,2.6H3.2c-1.7,0-3.2,1.4-3.2,3.2v3.4c0,1.7,1.4,3.2,3.2,3.2h1.5l0.8,2.6l-0.8,0.8
	c-1.3,1.3-1.3,3.3,0,4.6l2.4,2.4c1.3,1.3,3.3,1.3,4.6,0l0.8-0.8l2.6,0.8v1.5c0,1.7,1.4,3.2,3.2,3.2h3.4c1.8,0,3.2-1.4,3.2-3.2v-1.5
	l2.6-0.8l0.8,0.8c1.2,1.2,3.4,1.2,4.6,0L35.3,32.9z M29.8,34l-1.3-1.3c-0.3-0.3-0.6-0.4-1-0.3l-3.9,1.2c-0.4,0.2-0.7,0.6-0.7,1v2.2
	c0,0.6-0.5,1.2-1.2,1.2h-3.4c-0.6,0-1.2-0.5-1.2-1.2v-2.2c0-0.5-0.3-0.9-0.7-1l-3.9-1.2c-0.1,0-0.2,0-0.3,0c-0.3,0-0.6,0.1-0.7,0.1
	l-1.3,1.3c-0.4,0.5-1.2,0.5-1.7,0l-2.4-2.4c-0.5-0.4-0.5-1.2,0-1.7l1.3-1.3c0.3-0.3,0.4-0.6,0.3-1l-1.2-3.9c-0.2-0.4-0.6-0.7-1-0.7
	H3.3c-0.6,0-1.2-0.5-1.2-1.2v-3.4c0-0.6,0.5-1.2,1.2-1.2h2.2c0.5,0,0.9-0.3,1-0.7l1.2-3.9c0.1-0.4,0-0.7-0.3-1l-1.3-1.3
	c-0.5-0.4-0.5-1.2,0-1.7L8.5,6c0.4-0.5,1.2-0.5,1.7,0l1.3,1.3c0.3,0.3,0.6,0.4,1,0.3l3.9-1.2c0.4-0.2,0.7-0.6,0.7-1V3.2
	c0-0.6,0.5-1.2,1.2-1.2h3.4c0.6,0,1.2,0.5,1.2,1.2v2.2c0,0.5,0.3,0.9,0.7,1l3.9,1.2c0.4,0.1,0.7,0,1-0.3L29.8,6
	c0.4-0.5,1.2-0.5,1.7,0l2.4,2.4c0.3,0.3,0.4,0.6,0.4,0.9c0,0.4-0.2,0.7-0.4,0.9l-1.3,1.3c-0.3,0.3-0.4,0.6-0.3,1l1.2,3.9
	c0.2,0.4,0.6,0.7,1,0.7h2.2c0.6,0,1.2,0.5,1.2,1.2v3.4c0,0.6-0.5,1.2-1.2,1.2h-2.2c-0.5,0-0.9,0.3-1,0.7l-1.2,3.9
	c-0.1,0.4,0,0.7,0.3,1l1.3,1.3c0.3,0.3,0.4,0.6,0.4,0.9c0,0.4-0.2,0.7-0.4,0.9L31.5,34C31.1,34.5,30.3,34.5,29.8,34z"/>
<path d="M20,11.4c-4.7,0-8.6,3.9-8.6,8.6s3.8,8.6,8.6,8.6s8.6-3.9,8.6-8.6S24.7,11.4,20,11.4z M20,25.6c-3.1,0-5.6-2.5-5.6-5.6
	s2.5-5.6,5.6-5.6s5.6,2.5,5.6,5.6S23.1,25.6,20,25.6z"/>
<path d="M58.2,46c0.7-0.3,1.2-0.7,1.5-1.3s0.4-1.2,0.2-1.9l-0.7-2.2c-0.4-1.4-1.9-2.1-3.2-1.7l-0.6,0.2l-1.1-1l0.4-0.7
	c0.6-1.2,0.1-2.7-1.1-3.4l-2.1-1.1c-0.6-0.3-1.2-0.4-1.9-0.2c-0.7,0.3-1.2,0.7-1.5,1.3l-0.4,0.7l-1.5-0.3L46,33.8
	c-0.3-0.7-0.7-1.2-1.3-1.5s-1.2-0.4-1.9-0.2l-2.2,0.7c-0.7,0.3-1.2,0.7-1.5,1.3s-0.4,1.2-0.2,1.9l0.2,0.6l-1,1.1l-0.7-0.4
	c-0.6-0.3-1.2-0.4-1.9-0.2c-0.7,0.3-1.2,0.7-1.5,1.3l-1.1,2.1c-0.3,0.6-0.4,1.2-0.2,1.9c0.3,0.7,0.7,1.2,1.3,1.5l0.7,0.4l-0.3,1.5
	L33.8,46c-0.7,0.3-1.2,0.7-1.5,1.3s-0.4,1.2-0.2,1.9l0.7,2.2c0.3,0.7,0.7,1.2,1.3,1.5s1.3,0.4,1.9,0.2l0.6-0.2l1.1,1l-0.4,0.7
	c-0.3,0.6-0.4,1.2-0.2,1.9c0.3,0.7,0.7,1.2,1.3,1.5l2.1,1.1c1.2,0.6,2.7,0.1,3.4-1.1l0.4-0.7l1.5,0.3l0.2,0.6
	c0.3,1.1,1.3,1.8,2.4,1.8c0.3,0,0.5,0,0.8-0.1l2.2-0.7c0.7-0.3,1.2-0.7,1.5-1.3s0.4-1.2,0.2-1.9l-0.2-0.6l1-1.1l0.7,0.4
	c0.6,0.3,1.3,0.4,1.9,0.2c0.7-0.3,1.2-0.7,1.5-1.3l1.1-2.1c0.6-1.2,0.1-2.7-1.1-3.4l-0.7-0.4l0.3-1.5L58.2,46z M55.8,49.2l1.4,0.7
	c0.2,0.1,0.3,0.4,0.2,0.7l-1.1,2.1c0,0.2-0.2,0.3-0.3,0.3c-0.1,0.1-0.3,0.1-0.4,0l-1.4-0.7c-0.4-0.2-0.9-0.1-1.2,0.2l-2,2
	c-0.2,0.3-0.3,0.7-0.2,1l0.5,1.1c0.1,0.3-0.1,0.6-0.4,0.7L48.7,58c-0.3,0.1-0.6-0.1-0.7-0.4l-0.4-1.2c-0.1-0.4-0.4-0.6-0.8-0.7
	L44,55.2c-0.1,0-0.1,0-0.2,0c-0.4,0-0.7,0.2-0.7,0.7l-0.7,1.4c-0.1,0.2-0.4,0.3-0.7,0.2l-2.1-1.1c-0.2,0-0.3-0.2-0.3-0.3
	c-0.1-0.1-0.1-0.3,0-0.4l0.7-1.4c0.2-0.4,0.1-0.9-0.2-1.2l-2-2c-0.3-0.2-0.6-0.3-1-0.2l-1.2,0.4c-0.1,0.1-0.3,0.1-0.4,0
	c-0.2,0-0.3-0.2-0.3-0.3l-0.7-2.2c-0.1-0.1-0.1-0.3,0-0.4c0-0.2,0.2-0.3,0.3-0.3l1.2-0.4c0.4-0.1,0.6-0.4,0.7-0.8l0.5-2.8
	c0.1-0.5-0.1-0.9-0.5-1.1L35,42.3c-0.2,0-0.3-0.2-0.3-0.3c-0.1-0.1-0.1-0.3,0-0.4l1.1-2.1c0-0.2,0.2-0.3,0.3-0.3
	c0.1-0.1,0.3-0.1,0.4,0l1.4,0.7c0.4,0.2,0.9,0.1,1.2-0.2l2-2c0.2-0.3,0.3-0.6,0.2-1l-0.4-1.2c-0.1-0.3,0.1-0.6,0.4-0.7l2.2-0.7
	c0.1-0.1,0.3-0.1,0.4,0c0.2,0,0.3,0.2,0.3,0.3l0.4,1.2c0.1,0.4,0.4,0.6,0.8,0.7l2.8,0.5c0.5,0.1,0.9-0.1,1.1-0.5l0.7-1.4
	c0-0.2,0.2-0.3,0.3-0.3c0.1-0.1,0.3-0.1,0.4,0l2.1,1.1c0.2,0.1,0.3,0.4,0.2,0.7l-0.7,1.4c-0.2,0.4-0.1,0.9,0.2,1.2l2,2
	c0.3,0.2,0.6,0.3,1,0.2l1.2-0.4c0.3,0,0.6,0.1,0.7,0.4l0.7,2.2c0.1,0.3-0.1,0.6-0.4,0.7l-1.2,0.4c-0.4,0.1-0.6,0.4-0.7,0.8l-0.5,2.8
	C55.2,48.6,55.4,49,55.8,49.2z"/>
<path d="M48,41.2c-2.7-1.1-5.8,0.1-6.9,2.8c-1.1,2.6,0.1,5.8,2.8,6.9c0.7,0.3,1.4,0.4,2.1,0.4s1.4-0.1,1.9-0.4
	c1.3-0.5,2.3-1.5,2.9-2.8c0.5-1.3,0.5-2.7,0-4S49.3,41.8,48,41.2z M48.1,47c-0.2,0.5-0.6,1-1.2,1.2s-1.2,0.2-1.8,0
	c-1.1-0.5-1.7-1.8-1.2-3c0.4-0.9,1.2-1.4,2.1-1.4c0.3,0,0.6,0,0.9,0.2c0.5,0.2,1,0.6,1.2,1.2S48.3,46.5,48.1,47z"/>
</svg>
